<mxfile host="app.diagrams.net" modified="2024-03-04T12:46:18.417Z" agent="Mozilla/5.0 (Windows NT 10.0; Win64; x64) AppleWebKit/537.36 (KHTML, like Gecko) Chrome/122.0.0.0 Safari/537.36" etag="oPWHK-r222CLmGe5amEB" version="23.1.7" type="device">
  <diagram name="Page-1" id="PmSYtY6MezeM7TGvUgyC">
    <mxGraphModel dx="1434" dy="738" grid="1" gridSize="10" guides="1" tooltips="1" connect="1" arrows="1" fold="1" page="1" pageScale="1" pageWidth="827" pageHeight="1169" math="0" shadow="0">
      <root>
        <mxCell id="0" />
        <mxCell id="1" parent="0" />
        <mxCell id="sKcykwW3M1ahyQquCqhS-44" value="" style="group" parent="1" vertex="1" connectable="0">
          <mxGeometry x="364" y="20" width="160" height="80" as="geometry" />
        </mxCell>
        <mxCell id="sKcykwW3M1ahyQquCqhS-17" value="" style="shape=internalStorage;whiteSpace=wrap;html=1;backgroundOutline=1;rounded=1;glass=0;fillStyle=auto;labelBackgroundColor=none;container=0;fillColor=#dae8fc;strokeColor=#6c8ebf;" parent="sKcykwW3M1ahyQquCqhS-44" vertex="1">
          <mxGeometry width="160" height="80" as="geometry" />
        </mxCell>
        <mxCell id="sKcykwW3M1ahyQquCqhS-24" value="&amp;lt;&amp;lt;PK&amp;gt;&amp;gt; idVlastnictví" style="text;html=1;align=left;verticalAlign=middle;whiteSpace=wrap;rounded=0;container=0;" parent="sKcykwW3M1ahyQquCqhS-44" vertex="1">
          <mxGeometry x="20" y="20" width="140" height="20" as="geometry" />
        </mxCell>
        <mxCell id="sKcykwW3M1ahyQquCqhS-25" value="způsobZískání" style="text;html=1;align=left;verticalAlign=middle;whiteSpace=wrap;rounded=0;container=0;" parent="sKcykwW3M1ahyQquCqhS-44" vertex="1">
          <mxGeometry x="20" y="40" width="140" height="20" as="geometry" />
        </mxCell>
        <mxCell id="sKcykwW3M1ahyQquCqhS-26" value="způsobZtráty" style="text;html=1;align=left;verticalAlign=middle;whiteSpace=wrap;rounded=0;container=0;" parent="sKcykwW3M1ahyQquCqhS-44" vertex="1">
          <mxGeometry x="20" y="60" width="140" height="20" as="geometry" />
        </mxCell>
        <mxCell id="sKcykwW3M1ahyQquCqhS-36" value="&lt;b&gt;Vlastnictví&lt;/b&gt;" style="text;html=1;align=center;verticalAlign=middle;whiteSpace=wrap;rounded=0;" parent="sKcykwW3M1ahyQquCqhS-44" vertex="1">
          <mxGeometry x="20" width="140" height="20" as="geometry" />
        </mxCell>
        <mxCell id="sKcykwW3M1ahyQquCqhS-45" value="" style="group" parent="1" vertex="1" connectable="0">
          <mxGeometry x="641" y="20" width="150" height="100" as="geometry" />
        </mxCell>
        <mxCell id="sKcykwW3M1ahyQquCqhS-28" value="" style="shape=internalStorage;whiteSpace=wrap;html=1;backgroundOutline=1;rounded=1;glass=0;fillStyle=auto;labelBackgroundColor=none;container=0;fillColor=#d5e8d4;strokeColor=#82b366;" parent="sKcykwW3M1ahyQquCqhS-45" vertex="1">
          <mxGeometry width="150" height="100" as="geometry" />
        </mxCell>
        <mxCell id="sKcykwW3M1ahyQquCqhS-29" value="&lt;b&gt;Kouzelník&lt;/b&gt;" style="text;html=1;align=center;verticalAlign=middle;whiteSpace=wrap;rounded=0;container=0;" parent="sKcykwW3M1ahyQquCqhS-45" vertex="1">
          <mxGeometry x="18.75" width="112.5" height="20" as="geometry" />
        </mxCell>
        <mxCell id="sKcykwW3M1ahyQquCqhS-30" value="&amp;lt;&amp;lt;PK&amp;gt;&amp;gt; runovéJméno" style="text;html=1;align=left;verticalAlign=middle;whiteSpace=wrap;rounded=0;container=0;" parent="sKcykwW3M1ahyQquCqhS-45" vertex="1">
          <mxGeometry x="18.75" y="20" width="131.25" height="20" as="geometry" />
        </mxCell>
        <mxCell id="sKcykwW3M1ahyQquCqhS-31" value="občanskéJméno" style="text;html=1;align=left;verticalAlign=middle;whiteSpace=wrap;rounded=0;container=0;" parent="sKcykwW3M1ahyQquCqhS-45" vertex="1">
          <mxGeometry x="18.75" y="40" width="112.5" height="20" as="geometry" />
        </mxCell>
        <mxCell id="sKcykwW3M1ahyQquCqhS-32" value="kouzelnickáÚroveň" style="text;html=1;align=left;verticalAlign=middle;whiteSpace=wrap;rounded=0;container=0;" parent="sKcykwW3M1ahyQquCqhS-45" vertex="1">
          <mxGeometry x="18.75" y="60" width="112.5" height="20" as="geometry" />
        </mxCell>
        <mxCell id="sKcykwW3M1ahyQquCqhS-33" value="adresaPobytu" style="text;html=1;align=left;verticalAlign=middle;whiteSpace=wrap;rounded=0;container=0;" parent="sKcykwW3M1ahyQquCqhS-45" vertex="1">
          <mxGeometry x="18.75" y="80" width="112.5" height="20" as="geometry" />
        </mxCell>
        <mxCell id="sKcykwW3M1ahyQquCqhS-81" value="" style="group" parent="1" vertex="1" connectable="0">
          <mxGeometry x="584" y="330" width="180" height="100" as="geometry" />
        </mxCell>
        <mxCell id="sKcykwW3M1ahyQquCqhS-74" value="" style="shape=internalStorage;whiteSpace=wrap;html=1;backgroundOutline=1;rounded=1;glass=0;fillStyle=auto;labelBackgroundColor=none;container=0;fillColor=#e1d5e7;strokeColor=#9673a6;" parent="sKcykwW3M1ahyQquCqhS-81" vertex="1">
          <mxGeometry width="180" height="100" as="geometry" />
        </mxCell>
        <mxCell id="sKcykwW3M1ahyQquCqhS-75" value="&lt;b&gt;Čas&lt;/b&gt;" style="text;html=1;align=center;verticalAlign=middle;whiteSpace=wrap;rounded=0;container=0;" parent="sKcykwW3M1ahyQquCqhS-81" vertex="1">
          <mxGeometry x="18.75" width="161.25" height="20" as="geometry" />
        </mxCell>
        <mxCell id="sKcykwW3M1ahyQquCqhS-76" value="&amp;lt;&amp;lt;PK&amp;gt;&amp;gt; poziceSaturnu" style="text;html=1;align=left;verticalAlign=middle;whiteSpace=wrap;rounded=0;container=0;" parent="sKcykwW3M1ahyQquCqhS-81" vertex="1">
          <mxGeometry x="18.75" y="20" width="161.25" height="20" as="geometry" />
        </mxCell>
        <mxCell id="sKcykwW3M1ahyQquCqhS-77" value="&amp;lt;&amp;lt;PK&amp;gt;&amp;gt; poziceJupiteru" style="text;html=1;align=left;verticalAlign=middle;whiteSpace=wrap;rounded=0;container=0;" parent="sKcykwW3M1ahyQquCqhS-81" vertex="1">
          <mxGeometry x="18.75" y="40" width="161.25" height="20" as="geometry" />
        </mxCell>
        <mxCell id="sKcykwW3M1ahyQquCqhS-78" value="&amp;lt;&amp;lt;PK&amp;gt;&amp;gt; měsíčníFáze" style="text;html=1;align=left;verticalAlign=middle;whiteSpace=wrap;rounded=0;container=0;" parent="sKcykwW3M1ahyQquCqhS-81" vertex="1">
          <mxGeometry x="18.75" y="60" width="161.25" height="20" as="geometry" />
        </mxCell>
        <mxCell id="sKcykwW3M1ahyQquCqhS-79" value="&amp;lt;&amp;lt;PK&amp;gt;&amp;gt; početOběhůJupiteru" style="text;html=1;align=left;verticalAlign=middle;whiteSpace=wrap;rounded=0;container=0;" parent="sKcykwW3M1ahyQquCqhS-81" vertex="1">
          <mxGeometry x="18.75" y="80" width="161.25" height="20" as="geometry" />
        </mxCell>
        <mxCell id="sKcykwW3M1ahyQquCqhS-82" value="" style="group" parent="1" vertex="1" connectable="0">
          <mxGeometry x="284" y="420" width="110" height="60" as="geometry" />
        </mxCell>
        <mxCell id="sKcykwW3M1ahyQquCqhS-47" value="" style="shape=internalStorage;whiteSpace=wrap;html=1;backgroundOutline=1;rounded=1;glass=0;fillStyle=auto;labelBackgroundColor=none;container=0;fillColor=#ffe6cc;strokeColor=#d79b00;" parent="sKcykwW3M1ahyQquCqhS-82" vertex="1">
          <mxGeometry width="110" height="60" as="geometry" />
        </mxCell>
        <mxCell id="sKcykwW3M1ahyQquCqhS-48" value="&lt;b&gt;Typ Stopy&lt;/b&gt;" style="text;html=1;align=center;verticalAlign=middle;whiteSpace=wrap;rounded=0;container=0;" parent="sKcykwW3M1ahyQquCqhS-82" vertex="1">
          <mxGeometry x="18.75" width="91.25" height="20" as="geometry" />
        </mxCell>
        <mxCell id="sKcykwW3M1ahyQquCqhS-49" value="&amp;lt;&amp;lt;PK&amp;gt;&amp;gt; idTypu" style="text;html=1;align=left;verticalAlign=middle;whiteSpace=wrap;rounded=0;container=0;" parent="sKcykwW3M1ahyQquCqhS-82" vertex="1">
          <mxGeometry x="18.75" y="20" width="91.25" height="20" as="geometry" />
        </mxCell>
        <mxCell id="sKcykwW3M1ahyQquCqhS-50" value="typ" style="text;html=1;align=left;verticalAlign=middle;whiteSpace=wrap;rounded=0;container=0;" parent="sKcykwW3M1ahyQquCqhS-82" vertex="1">
          <mxGeometry x="18.75" y="40" width="91.25" height="20" as="geometry" />
        </mxCell>
        <mxCell id="sKcykwW3M1ahyQquCqhS-83" value="" style="group" parent="1" vertex="1" connectable="0">
          <mxGeometry x="624" y="200" width="140" height="40" as="geometry" />
        </mxCell>
        <mxCell id="sKcykwW3M1ahyQquCqhS-55" value="" style="shape=internalStorage;whiteSpace=wrap;html=1;backgroundOutline=1;rounded=1;glass=0;fillStyle=auto;labelBackgroundColor=none;container=0;fillColor=#fff2cc;strokeColor=#d6b656;" parent="sKcykwW3M1ahyQquCqhS-83" vertex="1">
          <mxGeometry x="27" width="140" height="40" as="geometry" />
        </mxCell>
        <mxCell id="sKcykwW3M1ahyQquCqhS-56" value="&lt;b&gt;Zachycená stopa&lt;/b&gt;" style="text;html=1;align=center;verticalAlign=middle;whiteSpace=wrap;rounded=0;container=0;" parent="sKcykwW3M1ahyQquCqhS-83" vertex="1">
          <mxGeometry x="46" width="121.25" height="20" as="geometry" />
        </mxCell>
        <mxCell id="sKcykwW3M1ahyQquCqhS-57" value="&amp;lt;&amp;lt;PK&amp;gt;&amp;gt; idZachycení" style="text;html=1;align=left;verticalAlign=middle;whiteSpace=wrap;rounded=0;container=0;" parent="sKcykwW3M1ahyQquCqhS-83" vertex="1">
          <mxGeometry x="46" y="20" width="121.25" height="20" as="geometry" />
        </mxCell>
        <mxCell id="sKcykwW3M1ahyQquCqhS-84" value="" style="group" parent="1" vertex="1" connectable="0">
          <mxGeometry x="414" y="140" width="140" height="80" as="geometry" />
        </mxCell>
        <mxCell id="sKcykwW3M1ahyQquCqhS-66" value="" style="shape=internalStorage;whiteSpace=wrap;html=1;backgroundOutline=1;rounded=1;glass=0;fillStyle=auto;labelBackgroundColor=none;container=0;fillColor=#f8cecc;strokeColor=#b85450;" parent="sKcykwW3M1ahyQquCqhS-84" vertex="1">
          <mxGeometry width="140" height="80" as="geometry" />
        </mxCell>
        <mxCell id="sKcykwW3M1ahyQquCqhS-67" value="&lt;b&gt;Detektor Magie&lt;/b&gt;" style="text;html=1;align=center;verticalAlign=middle;whiteSpace=wrap;rounded=0;container=0;" parent="sKcykwW3M1ahyQquCqhS-84" vertex="1">
          <mxGeometry x="18.75" width="121.25" height="20" as="geometry" />
        </mxCell>
        <mxCell id="sKcykwW3M1ahyQquCqhS-68" value="&amp;lt;&amp;lt;PK&amp;gt;&amp;gt; idDetektoru" style="text;html=1;align=left;verticalAlign=middle;whiteSpace=wrap;rounded=0;container=0;" parent="sKcykwW3M1ahyQquCqhS-84" vertex="1">
          <mxGeometry x="18.75" y="20" width="121.25" height="20" as="geometry" />
        </mxCell>
        <mxCell id="sKcykwW3M1ahyQquCqhS-69" value="stav" style="text;html=1;align=left;verticalAlign=middle;whiteSpace=wrap;rounded=0;container=0;" parent="sKcykwW3M1ahyQquCqhS-84" vertex="1">
          <mxGeometry x="18.75" y="40" width="121.25" height="20" as="geometry" />
        </mxCell>
        <mxCell id="sKcykwW3M1ahyQquCqhS-70" value="citlivost" style="text;html=1;align=left;verticalAlign=middle;whiteSpace=wrap;rounded=0;container=0;" parent="sKcykwW3M1ahyQquCqhS-84" vertex="1">
          <mxGeometry x="18.75" y="60" width="121.25" height="20" as="geometry" />
        </mxCell>
        <mxCell id="sKcykwW3M1ahyQquCqhS-114" value="" style="group" parent="1" vertex="1" connectable="0">
          <mxGeometry x="34" y="141" width="370" height="200" as="geometry" />
        </mxCell>
        <mxCell id="sKcykwW3M1ahyQquCqhS-109" value="" style="group" parent="sKcykwW3M1ahyQquCqhS-114" vertex="1" connectable="0">
          <mxGeometry y="120" width="140" height="80" as="geometry" />
        </mxCell>
        <mxCell id="sKcykwW3M1ahyQquCqhS-102" value="" style="shape=internalStorage;whiteSpace=wrap;html=1;backgroundOutline=1;rounded=1;glass=0;fillStyle=auto;labelBackgroundColor=none;fillColor=#f5f5f5;fontColor=#333333;strokeColor=#666666;" parent="sKcykwW3M1ahyQquCqhS-109" vertex="1">
          <mxGeometry width="140" height="80" as="geometry" />
        </mxCell>
        <mxCell id="sKcykwW3M1ahyQquCqhS-103" value="&lt;b&gt;Kouzelný Předmět&lt;/b&gt;" style="text;html=1;align=center;verticalAlign=middle;whiteSpace=wrap;rounded=0;" parent="sKcykwW3M1ahyQquCqhS-109" vertex="1">
          <mxGeometry x="20" y="-1" width="120" height="20" as="geometry" />
        </mxCell>
        <mxCell id="sKcykwW3M1ahyQquCqhS-106" value="velikost" style="text;html=1;align=left;verticalAlign=middle;whiteSpace=wrap;rounded=0;" parent="sKcykwW3M1ahyQquCqhS-109" vertex="1">
          <mxGeometry x="20" y="19" width="120" height="20" as="geometry" />
        </mxCell>
        <mxCell id="sKcykwW3M1ahyQquCqhS-107" value="typ" style="text;html=1;align=left;verticalAlign=middle;whiteSpace=wrap;rounded=0;" parent="sKcykwW3M1ahyQquCqhS-109" vertex="1">
          <mxGeometry x="20" y="39" width="120" height="20" as="geometry" />
        </mxCell>
        <mxCell id="sKcykwW3M1ahyQquCqhS-108" value="nebezpečnost" style="text;html=1;align=left;verticalAlign=middle;whiteSpace=wrap;rounded=0;" parent="sKcykwW3M1ahyQquCqhS-109" vertex="1">
          <mxGeometry x="20" y="59" width="120" height="20" as="geometry" />
        </mxCell>
        <mxCell id="sKcykwW3M1ahyQquCqhS-110" value="" style="group" parent="sKcykwW3M1ahyQquCqhS-114" vertex="1" connectable="0">
          <mxGeometry x="110" y="-1" width="140" height="60" as="geometry" />
        </mxCell>
        <mxCell id="sKcykwW3M1ahyQquCqhS-3" value="" style="shape=internalStorage;whiteSpace=wrap;html=1;backgroundOutline=1;rounded=1;glass=0;fillStyle=auto;labelBackgroundColor=none;fillColor=#f5f5f5;fontColor=#333333;strokeColor=#666666;" parent="sKcykwW3M1ahyQquCqhS-110" vertex="1">
          <mxGeometry width="140" height="60" as="geometry" />
        </mxCell>
        <mxCell id="sKcykwW3M1ahyQquCqhS-9" value="&lt;b&gt;Předmět&lt;/b&gt;" style="text;html=1;align=center;verticalAlign=middle;whiteSpace=wrap;rounded=0;" parent="sKcykwW3M1ahyQquCqhS-110" vertex="1">
          <mxGeometry x="20" width="120" height="20" as="geometry" />
        </mxCell>
        <mxCell id="sKcykwW3M1ahyQquCqhS-10" value="&amp;lt;&amp;lt;PK&amp;gt;&amp;gt; runovýKód" style="text;html=1;align=left;verticalAlign=middle;whiteSpace=wrap;rounded=0;" parent="sKcykwW3M1ahyQquCqhS-110" vertex="1">
          <mxGeometry x="20" y="20" width="120" height="20" as="geometry" />
        </mxCell>
        <mxCell id="sKcykwW3M1ahyQquCqhS-11" value="název" style="text;html=1;align=left;verticalAlign=middle;whiteSpace=wrap;rounded=0;" parent="sKcykwW3M1ahyQquCqhS-110" vertex="1">
          <mxGeometry x="20" y="40" width="120" height="20" as="geometry" />
        </mxCell>
        <mxCell id="sKcykwW3M1ahyQquCqhS-111" value="" style="group" parent="sKcykwW3M1ahyQquCqhS-114" vertex="1" connectable="0">
          <mxGeometry x="220" y="119" width="150" height="70" as="geometry" />
        </mxCell>
        <mxCell id="sKcykwW3M1ahyQquCqhS-94" value="" style="shape=internalStorage;whiteSpace=wrap;html=1;backgroundOutline=1;rounded=1;glass=0;fillStyle=auto;labelBackgroundColor=none;fillColor=#f5f5f5;fontColor=#333333;strokeColor=#666666;" parent="sKcykwW3M1ahyQquCqhS-111" vertex="1">
          <mxGeometry width="150" height="70" as="geometry" />
        </mxCell>
        <mxCell id="sKcykwW3M1ahyQquCqhS-95" value="&lt;b&gt;Mudlovský Předmět&lt;/b&gt;" style="text;html=1;align=center;verticalAlign=middle;whiteSpace=wrap;rounded=0;" parent="sKcykwW3M1ahyQquCqhS-111" vertex="1">
          <mxGeometry x="21.428571428571445" width="128.57142857142856" height="20" as="geometry" />
        </mxCell>
        <mxCell id="sEtDHFtgyHJHKTgmc9tl-5" value="cena" style="text;html=1;align=left;verticalAlign=middle;whiteSpace=wrap;rounded=0;" parent="sKcykwW3M1ahyQquCqhS-111" vertex="1">
          <mxGeometry x="19.430000000000007" y="20" width="120" height="20" as="geometry" />
        </mxCell>
        <mxCell id="sKcykwW3M1ahyQquCqhS-112" value="" style="endArrow=none;html=1;rounded=0;entryX=0.5;entryY=0;entryDx=0;entryDy=0;exitX=0.5;exitY=0;exitDx=0;exitDy=0;" parent="sKcykwW3M1ahyQquCqhS-114" source="sKcykwW3M1ahyQquCqhS-103" target="sKcykwW3M1ahyQquCqhS-95" edge="1">
          <mxGeometry width="50" height="50" relative="1" as="geometry">
            <mxPoint x="150" y="139" as="sourcePoint" />
            <mxPoint x="200" y="89" as="targetPoint" />
            <Array as="points">
              <mxPoint x="80" y="99" />
              <mxPoint x="190" y="99" />
              <mxPoint x="306" y="99" />
            </Array>
          </mxGeometry>
        </mxCell>
        <mxCell id="sKcykwW3M1ahyQquCqhS-113" value="" style="endArrow=block;endSize=16;endFill=0;html=1;rounded=0;entryX=0.5;entryY=1;entryDx=0;entryDy=0;" parent="sKcykwW3M1ahyQquCqhS-114" target="sKcykwW3M1ahyQquCqhS-11" edge="1">
          <mxGeometry width="160" relative="1" as="geometry">
            <mxPoint x="190" y="99" as="sourcePoint" />
            <mxPoint x="190" y="49" as="targetPoint" />
          </mxGeometry>
        </mxCell>
        <mxCell id="sKcykwW3M1ahyQquCqhS-147" value="0..*" style="text;html=1;align=center;verticalAlign=middle;whiteSpace=wrap;rounded=0;" parent="sKcykwW3M1ahyQquCqhS-114" vertex="1">
          <mxGeometry x="140" y="130" width="30" height="30" as="geometry" />
        </mxCell>
        <mxCell id="sKcykwW3M1ahyQquCqhS-116" value="" style="endArrow=none;html=1;rounded=0;entryX=0;entryY=0.5;entryDx=0;entryDy=0;exitX=0.5;exitY=0;exitDx=0;exitDy=0;" parent="1" source="sKcykwW3M1ahyQquCqhS-9" target="sKcykwW3M1ahyQquCqhS-17" edge="1">
          <mxGeometry width="50" height="50" relative="1" as="geometry">
            <mxPoint x="224" y="85" as="sourcePoint" />
            <mxPoint x="274" y="35" as="targetPoint" />
            <Array as="points">
              <mxPoint x="224" y="60" />
            </Array>
          </mxGeometry>
        </mxCell>
        <mxCell id="sKcykwW3M1ahyQquCqhS-117" value="objekt vlastnictví" style="text;html=1;align=center;verticalAlign=middle;whiteSpace=wrap;rounded=0;" parent="1" vertex="1">
          <mxGeometry x="224" y="30" width="100" height="30" as="geometry" />
        </mxCell>
        <mxCell id="sKcykwW3M1ahyQquCqhS-118" value="1" style="text;html=1;align=center;verticalAlign=middle;whiteSpace=wrap;rounded=0;" parent="1" vertex="1">
          <mxGeometry x="194" y="110" width="30" height="30" as="geometry" />
        </mxCell>
        <mxCell id="sKcykwW3M1ahyQquCqhS-120" value="0..*" style="text;html=1;align=center;verticalAlign=middle;whiteSpace=wrap;rounded=0;" parent="1" vertex="1">
          <mxGeometry x="334" y="30" width="30" height="30" as="geometry" />
        </mxCell>
        <mxCell id="sKcykwW3M1ahyQquCqhS-121" value="" style="endArrow=none;html=1;rounded=0;entryX=0;entryY=0.5;entryDx=0;entryDy=0;exitX=1;exitY=0.5;exitDx=0;exitDy=0;" parent="1" source="sKcykwW3M1ahyQquCqhS-25" target="sKcykwW3M1ahyQquCqhS-28" edge="1">
          <mxGeometry width="50" height="50" relative="1" as="geometry">
            <mxPoint x="544" y="110" as="sourcePoint" />
            <mxPoint x="594" y="60" as="targetPoint" />
          </mxGeometry>
        </mxCell>
        <mxCell id="sKcykwW3M1ahyQquCqhS-122" value="vlastník" style="text;html=1;align=center;verticalAlign=middle;whiteSpace=wrap;rounded=0;" parent="1" vertex="1">
          <mxGeometry x="554" y="40" width="60" height="30" as="geometry" />
        </mxCell>
        <mxCell id="sKcykwW3M1ahyQquCqhS-123" value="0..*" style="text;html=1;align=center;verticalAlign=middle;whiteSpace=wrap;rounded=0;" parent="1" vertex="1">
          <mxGeometry x="524" y="40" width="30" height="30" as="geometry" />
        </mxCell>
        <mxCell id="sKcykwW3M1ahyQquCqhS-125" value="1" style="text;html=1;align=center;verticalAlign=middle;whiteSpace=wrap;rounded=0;" parent="1" vertex="1">
          <mxGeometry x="611" y="40" width="30" height="30" as="geometry" />
        </mxCell>
        <mxCell id="sKcykwW3M1ahyQquCqhS-126" value="" style="endArrow=none;html=1;rounded=0;exitX=0.45;exitY=0.025;exitDx=0;exitDy=0;exitPerimeter=0;" parent="1" source="sKcykwW3M1ahyQquCqhS-55" edge="1">
          <mxGeometry width="50" height="50" relative="1" as="geometry">
            <mxPoint x="394" y="260" as="sourcePoint" />
            <mxPoint x="714" y="120" as="targetPoint" />
          </mxGeometry>
        </mxCell>
        <mxCell id="sKcykwW3M1ahyQquCqhS-129" value="zachytil" style="text;html=1;align=center;verticalAlign=middle;whiteSpace=wrap;rounded=0;" parent="1" vertex="1">
          <mxGeometry x="710" y="143" width="60" height="30" as="geometry" />
        </mxCell>
        <mxCell id="sKcykwW3M1ahyQquCqhS-130" value="0..1" style="text;html=1;align=center;verticalAlign=middle;whiteSpace=wrap;rounded=0;" parent="1" vertex="1">
          <mxGeometry x="714" y="120" width="30" height="30" as="geometry" />
        </mxCell>
        <mxCell id="sKcykwW3M1ahyQquCqhS-131" value="0..*" style="text;html=1;align=center;verticalAlign=middle;whiteSpace=wrap;rounded=0;" parent="1" vertex="1">
          <mxGeometry x="714" y="170" width="30" height="30" as="geometry" />
        </mxCell>
        <mxCell id="sKcykwW3M1ahyQquCqhS-132" value="" style="endArrow=none;html=1;rounded=0;entryX=0.5;entryY=1;entryDx=0;entryDy=0;exitX=0.5;exitY=0;exitDx=0;exitDy=0;" parent="1" source="sKcykwW3M1ahyQquCqhS-75" target="sKcykwW3M1ahyQquCqhS-57" edge="1">
          <mxGeometry width="50" height="50" relative="1" as="geometry">
            <mxPoint x="660" y="310" as="sourcePoint" />
            <mxPoint x="710" y="260" as="targetPoint" />
            <Array as="points">
              <mxPoint x="683" y="280" />
              <mxPoint x="731" y="280" />
            </Array>
          </mxGeometry>
        </mxCell>
        <mxCell id="sKcykwW3M1ahyQquCqhS-133" value="stala se" style="text;html=1;align=center;verticalAlign=middle;whiteSpace=wrap;rounded=0;" parent="1" vertex="1">
          <mxGeometry x="671" y="255" width="60" height="30" as="geometry" />
        </mxCell>
        <mxCell id="sKcykwW3M1ahyQquCqhS-134" value="1" style="text;html=1;align=center;verticalAlign=middle;whiteSpace=wrap;rounded=0;" parent="1" vertex="1">
          <mxGeometry x="654" y="300" width="30" height="30" as="geometry" />
        </mxCell>
        <mxCell id="sKcykwW3M1ahyQquCqhS-135" value="0..*" style="text;html=1;align=center;verticalAlign=middle;whiteSpace=wrap;rounded=0;" parent="1" vertex="1">
          <mxGeometry x="701" y="236" width="30" height="30" as="geometry" />
        </mxCell>
        <mxCell id="sKcykwW3M1ahyQquCqhS-137" value="" style="endArrow=none;html=1;rounded=0;entryX=0.002;entryY=0.133;entryDx=0;entryDy=0;exitX=1;exitY=0;exitDx=0;exitDy=0;entryPerimeter=0;" parent="1" source="sKcykwW3M1ahyQquCqhS-69" target="sKcykwW3M1ahyQquCqhS-55" edge="1">
          <mxGeometry width="50" height="50" relative="1" as="geometry">
            <mxPoint x="394" y="360" as="sourcePoint" />
            <mxPoint x="444" y="310" as="targetPoint" />
            <Array as="points">
              <mxPoint x="604" y="180" />
              <mxPoint x="604" y="205" />
            </Array>
          </mxGeometry>
        </mxCell>
        <mxCell id="sKcykwW3M1ahyQquCqhS-138" value="zachytil" style="text;html=1;align=center;verticalAlign=middle;whiteSpace=wrap;rounded=0;" parent="1" vertex="1">
          <mxGeometry x="578" y="152" width="60" height="30" as="geometry" />
        </mxCell>
        <mxCell id="sKcykwW3M1ahyQquCqhS-139" value="0..1" style="text;html=1;align=center;verticalAlign=middle;whiteSpace=wrap;rounded=0;" parent="1" vertex="1">
          <mxGeometry x="554" y="150" width="30" height="30" as="geometry" />
        </mxCell>
        <mxCell id="sKcykwW3M1ahyQquCqhS-140" value="0..*" style="text;html=1;align=center;verticalAlign=middle;whiteSpace=wrap;rounded=0;" parent="1" vertex="1">
          <mxGeometry x="624" y="180" width="30" height="30" as="geometry" />
        </mxCell>
        <mxCell id="sKcykwW3M1ahyQquCqhS-141" value="" style="endArrow=none;html=1;rounded=0;exitX=0.5;exitY=1;exitDx=0;exitDy=0;entryX=0;entryY=0.75;entryDx=0;entryDy=0;" parent="1" source="sKcykwW3M1ahyQquCqhS-108" target="sKcykwW3M1ahyQquCqhS-55" edge="1">
          <mxGeometry width="50" height="50" relative="1" as="geometry">
            <mxPoint x="434" y="430" as="sourcePoint" />
            <mxPoint x="654" y="231" as="targetPoint" />
            <Array as="points">
              <mxPoint x="114" y="381" />
              <mxPoint x="514" y="381" />
              <mxPoint x="514" y="261" />
              <mxPoint x="594" y="261" />
              <mxPoint x="594" y="231" />
            </Array>
          </mxGeometry>
        </mxCell>
        <mxCell id="sKcykwW3M1ahyQquCqhS-142" value="zanechal" style="text;html=1;align=center;verticalAlign=middle;whiteSpace=wrap;rounded=0;" parent="1" vertex="1">
          <mxGeometry x="384" y="351" width="60" height="30" as="geometry" />
        </mxCell>
        <mxCell id="sKcykwW3M1ahyQquCqhS-143" value="0..*" style="text;html=1;align=center;verticalAlign=middle;whiteSpace=wrap;rounded=0;" parent="1" vertex="1">
          <mxGeometry x="624" y="207" width="30" height="30" as="geometry" />
        </mxCell>
        <mxCell id="sKcykwW3M1ahyQquCqhS-144" value="1" style="text;html=1;align=center;verticalAlign=middle;whiteSpace=wrap;rounded=0;" parent="1" vertex="1">
          <mxGeometry x="114" y="340" width="30" height="30" as="geometry" />
        </mxCell>
        <mxCell id="sKcykwW3M1ahyQquCqhS-145" value="" style="endArrow=none;html=1;rounded=0;entryX=0;entryY=0.5;entryDx=0;entryDy=0;exitX=1;exitY=0;exitDx=0;exitDy=0;" parent="1" source="sKcykwW3M1ahyQquCqhS-107" target="sKcykwW3M1ahyQquCqhS-47" edge="1">
          <mxGeometry width="50" height="50" relative="1" as="geometry">
            <mxPoint x="124" y="511" as="sourcePoint" />
            <mxPoint x="174" y="461" as="targetPoint" />
            <Array as="points">
              <mxPoint x="214" y="301" />
              <mxPoint x="214" y="451" />
            </Array>
          </mxGeometry>
        </mxCell>
        <mxCell id="sKcykwW3M1ahyQquCqhS-146" value="zanechává" style="text;html=1;align=center;verticalAlign=middle;whiteSpace=wrap;rounded=0;" parent="1" vertex="1">
          <mxGeometry x="217" y="340" width="60" height="30" as="geometry" />
        </mxCell>
        <mxCell id="sKcykwW3M1ahyQquCqhS-148" value="1..*" style="text;html=1;align=center;verticalAlign=middle;whiteSpace=wrap;rounded=0;" parent="1" vertex="1">
          <mxGeometry x="254" y="420" width="30" height="30" as="geometry" />
        </mxCell>
        <mxCell id="sKcykwW3M1ahyQquCqhS-150" value="" style="endArrow=none;html=1;rounded=0;entryX=0;entryY=1;entryDx=0;entryDy=0;exitX=1;exitY=1;exitDx=0;exitDy=0;" parent="1" source="sKcykwW3M1ahyQquCqhS-49" target="sKcykwW3M1ahyQquCqhS-57" edge="1">
          <mxGeometry width="50" height="50" relative="1" as="geometry">
            <mxPoint x="374" y="461" as="sourcePoint" />
            <mxPoint x="504" y="391" as="targetPoint" />
            <Array as="points">
              <mxPoint x="554" y="460" />
              <mxPoint x="554" y="281" />
              <mxPoint x="670" y="281" />
            </Array>
          </mxGeometry>
        </mxCell>
        <mxCell id="sKcykwW3M1ahyQquCqhS-151" value="typ stopy" style="text;html=1;align=center;verticalAlign=middle;whiteSpace=wrap;rounded=0;" parent="1" vertex="1">
          <mxGeometry x="474" y="430" width="60" height="30" as="geometry" />
        </mxCell>
        <mxCell id="sKcykwW3M1ahyQquCqhS-152" value="1" style="text;html=1;align=center;verticalAlign=middle;whiteSpace=wrap;rounded=0;" parent="1" vertex="1">
          <mxGeometry x="394" y="430" width="30" height="30" as="geometry" />
        </mxCell>
        <mxCell id="sKcykwW3M1ahyQquCqhS-153" value="0..*" style="text;html=1;align=center;verticalAlign=middle;whiteSpace=wrap;rounded=0;" parent="1" vertex="1">
          <mxGeometry x="642" y="232" width="30" height="30" as="geometry" />
        </mxCell>
        <mxCell id="sEtDHFtgyHJHKTgmc9tl-1" value="" style="endArrow=none;html=1;rounded=0;entryX=0.469;entryY=1.062;entryDx=0;entryDy=0;exitX=0.184;exitY=-0.048;exitDx=0;exitDy=0;exitPerimeter=0;entryPerimeter=0;" parent="1" source="sKcykwW3M1ahyQquCqhS-48" target="sKcykwW3M1ahyQquCqhS-70" edge="1">
          <mxGeometry width="50" height="50" relative="1" as="geometry">
            <mxPoint x="380" y="350" as="sourcePoint" />
            <mxPoint x="430" y="300" as="targetPoint" />
            <Array as="points">
              <mxPoint x="320" y="400" />
              <mxPoint x="490" y="400" />
            </Array>
          </mxGeometry>
        </mxCell>
        <mxCell id="sEtDHFtgyHJHKTgmc9tl-2" value="zachytává" style="text;html=1;align=center;verticalAlign=middle;whiteSpace=wrap;rounded=0;" parent="1" vertex="1">
          <mxGeometry x="428" y="266" width="60" height="30" as="geometry" />
        </mxCell>
        <mxCell id="sEtDHFtgyHJHKTgmc9tl-3" value="1..*" style="text;html=1;align=center;verticalAlign=middle;whiteSpace=wrap;rounded=0;" parent="1" vertex="1">
          <mxGeometry x="292" y="395" width="30" height="30" as="geometry" />
        </mxCell>
        <mxCell id="sEtDHFtgyHJHKTgmc9tl-4" value="0..*" style="text;html=1;align=center;verticalAlign=middle;whiteSpace=wrap;rounded=0;" parent="1" vertex="1">
          <mxGeometry x="490" y="216" width="30" height="30" as="geometry" />
        </mxCell>
      </root>
    </mxGraphModel>
  </diagram>
</mxfile>
